<?xml version="1.0" encoding="UTF-8" standalone="no"?>
<!-- Created with Inkscape (http://www.inkscape.org/) -->

<svg
   xmlns:dc="http://purl.org/dc/elements/1.1/"
   xmlns:cc="http://creativecommons.org/ns#"
   xmlns:rdf="http://www.w3.org/1999/02/22-rdf-syntax-ns#"
   xmlns:svg="http://www.w3.org/2000/svg"
   xmlns="http://www.w3.org/2000/svg"
   xmlns:sodipodi="http://sodipodi.sourceforge.net/DTD/sodipodi-0.dtd"
   xmlns:inkscape="http://www.inkscape.org/namespaces/inkscape"
   width="128"
   height="128"
   id="svg2"
   version="1.1"
   inkscape:version="0.48.5 r10040"
   sodipodi:docname="favicon-circle.svg">
  <defs
     id="defs4" />
  <sodipodi:namedview
     id="base"
     pagecolor="#ffffff"
     bordercolor="#666666"
     borderopacity="1.0"
     inkscape:pageopacity="0.0"
     inkscape:pageshadow="2"
     inkscape:zoom="3.959798"
     inkscape:cx="30.092139"
     inkscape:cy="70.269901"
     inkscape:document-units="px"
     inkscape:current-layer="layer1"
     showgrid="false"
     inkscape:window-width="1920"
     inkscape:window-height="1018"
     inkscape:window-x="-8"
     inkscape:window-y="-8"
     inkscape:window-maximized="1"
     showguides="true"
     inkscape:guide-bbox="true" />
  <metadata
     id="metadata7">
    <rdf:RDF>
      <cc:Work
         rdf:about="">
        <dc:format>image/svg+xml</dc:format>
        <dc:type
           rdf:resource="http://purl.org/dc/dcmitype/StillImage" />
        <dc:title />
      </cc:Work>
    </rdf:RDF>
  </metadata>
  <g
     inkscape:label="Layer 1"
     inkscape:groupmode="layer"
     id="layer1"
     transform="translate(0,-924.36218)">
    <path
       style="fill:#97e9e9;fill-opacity:1;stroke:none"
       d="m 64,940.36218 c -25.561848,0 -46.444779,19.96861 -47.90625,45.1641 l 29.320312,0 4.664063,-17.36723 c 0.843547,-3.22083 2.702276,-5.93219 5.578125,-8.15625 2.837443,-2.26222 5.872795,-3.39834 9.09375,-3.39843 l 31.804687,0 -1.570312,5.76562 -14.4375,0 -6.210938,23.15629 37.570313,0 C 110.44478,960.33079 89.561856,940.36218 64,940.36218 z m 47.88285,50.9297 -39.09375,0 -10.875,40.54692 c -0.411895,1.5539 -1.048968,3.0014 -1.945312,4.3359 1.333298,0.1112 2.669218,0.1875 4.03125,0.1875 25.521653,0 46.362642,-19.9309 47.882812,-45.07032 z m -77.390663,34.89842 9.375,-34.89842 -27.75,0 c 0.857058,14.17342 7.851019,26.67812 18.375,34.89842 z"
       id="path4335"
       inkscape:connector-curvature="0"
       sodipodi:nodetypes="sccccccccccsccccsccccc" />
    <g
       transform="matrix(0.92387151,0,0,0.92387151,21.39919,495.53642)"
       style="font-size:40px;font-style:normal;font-weight:normal;line-height:125%;letter-spacing:0px;word-spacing:0px;fill:#ffffff;fill-opacity:1;stroke:none;font-family:Sans"
       id="flowRoot3755" />
  </g>
</svg>
