<?xml version="1.0" encoding="UTF-8" standalone="no"?>
<!-- Created with Inkscape (http://www.inkscape.org/) -->

<svg
   xmlns:dc="http://purl.org/dc/elements/1.1/"
   xmlns:cc="http://creativecommons.org/ns#"
   xmlns:rdf="http://www.w3.org/1999/02/22-rdf-syntax-ns#"
   xmlns:svg="http://www.w3.org/2000/svg"
   xmlns="http://www.w3.org/2000/svg"
   xmlns:sodipodi="http://sodipodi.sourceforge.net/DTD/sodipodi-0.dtd"
   xmlns:inkscape="http://www.inkscape.org/namespaces/inkscape"
   width="128"
   height="128"
   id="svg2"
   version="1.1"
   inkscape:version="0.48.5 r10040"
   sodipodi:docname="favicon-circle.svg">
  <defs
     id="defs4" />
  <sodipodi:namedview
     id="base"
     pagecolor="#ffffff"
     bordercolor="#666666"
     borderopacity="1.0"
     inkscape:pageopacity="0.0"
     inkscape:pageshadow="2"
     inkscape:zoom="1.979899"
     inkscape:cx="129.58929"
     inkscape:cy="24.191921"
     inkscape:document-units="px"
     inkscape:current-layer="layer1"
     showgrid="false"
     inkscape:window-width="1920"
     inkscape:window-height="1018"
     inkscape:window-x="-8"
     inkscape:window-y="-8"
     inkscape:window-maximized="1"
     showguides="true"
     inkscape:guide-bbox="true" />
  <metadata
     id="metadata7">
    <rdf:RDF>
      <cc:Work
         rdf:about="">
        <dc:format>image/svg+xml</dc:format>
        <dc:type
           rdf:resource="http://purl.org/dc/dcmitype/StillImage" />
        <dc:title></dc:title>
      </cc:Work>
    </rdf:RDF>
  </metadata>
  <g
     inkscape:label="Layer 1"
     inkscape:groupmode="layer"
     id="layer1"
     transform="translate(0,-924.36218)">
    <path
       style="fill:#97e9e9;fill-opacity:1;stroke:none"
       d="m 64,924.375 c -34.082464,0 -61.9263717,26.62481 -63.875,60.21875 l 39.09375,0 6.21875,-23.15625 c 1.12473,-4.29445 3.603035,-7.90959 7.4375,-10.875 3.783257,-3.0163 7.830393,-4.53113 12.125,-4.53125 l 42.40625,0 -2.09375,7.6875 -19.25,0 -8.28125,30.875 50.09375,0 C 125.92637,950.99981 98.082475,924.375 64,924.375 z m 63.8438,67.90625 -52.125,0 -14.5,54.06255 c -0.549193,2.0718 -1.398624,4.0018 -2.59375,5.7812 1.777731,0.1483 3.558958,0.25 5.375,0.25 34.028871,0 61.81686,-26.5745 63.84375,-60.09375 z m -103.18755,46.53125 12.5,-46.53125 -37,0 c 1.1427433,18.89785 10.468025,35.57075 24.5,46.53125 z"
       id="path4335"
       inkscape:connector-curvature="0"
       sodipodi:nodetypes="sccccccccccsccccsccccc" />
    <g
       transform="matrix(0.92387151,0,0,0.92387151,21.39919,495.53642)"
       style="font-size:40px;font-style:normal;font-weight:normal;line-height:125%;letter-spacing:0px;word-spacing:0px;fill:#ffffff;fill-opacity:1;stroke:none;font-family:Sans"
       id="flowRoot3755" />
  </g>
</svg>
